<svg width="310" height="74" viewBox="0 0 310 74" fill="none" xmlns="http://www.w3.org/2000/svg">
<rect width="310" height="74" fill="white"/>
<path fill-rule="evenodd" clip-rule="evenodd" d="M40 60.5C51.0457 60.5 60 51.5457 60 40.5C60 29.4543 51.0457 20.5 40 20.5C28.9543 20.5 20 29.4543 20 40.5C20 51.5457 28.9543 60.5 40 60.5Z" fill="url(#paint0_linear_1_51)"/>
<path d="M78.594 29.664C78.594 28.416 78.864 27.306 79.404 26.334C79.944 25.35 80.694 24.588 81.654 24.048C82.626 23.496 83.724 23.22 84.948 23.22C86.448 23.22 87.732 23.616 88.8 24.408C89.868 25.2 90.582 26.28 90.942 27.648H87.558C87.306 27.12 86.946 26.718 86.478 26.442C86.022 26.166 85.5 26.028 84.912 26.028C83.964 26.028 83.196 26.358 82.608 27.018C82.02 27.678 81.726 28.56 81.726 29.664C81.726 30.768 82.02 31.65 82.608 32.31C83.196 32.97 83.964 33.3 84.912 33.3C85.5 33.3 86.022 33.162 86.478 32.886C86.946 32.61 87.306 32.208 87.558 31.68H90.942C90.582 33.048 89.868 34.128 88.8 34.92C87.732 35.7 86.448 36.09 84.948 36.09C83.724 36.09 82.626 35.82 81.654 35.28C80.694 34.728 79.944 33.966 79.404 32.994C78.864 32.022 78.594 30.912 78.594 29.664ZM96.1049 22.68V36H93.0269V22.68H96.1049ZM97.9235 30.96C97.9235 29.928 98.1155 29.022 98.4995 28.242C98.8955 27.462 99.4295 26.862 100.102 26.442C100.774 26.022 101.524 25.812 102.352 25.812C103.06 25.812 103.678 25.956 104.206 26.244C104.746 26.532 105.16 26.91 105.448 27.378V25.956H108.526V36H105.448V34.578C105.148 35.046 104.728 35.424 104.188 35.712C103.66 36 103.042 36.144 102.334 36.144C101.518 36.144 100.774 35.934 100.102 35.514C99.4295 35.082 98.8955 34.476 98.4995 33.696C98.1155 32.904 97.9235 31.992 97.9235 30.96ZM105.448 30.978C105.448 30.21 105.232 29.604 104.8 29.16C104.38 28.716 103.864 28.494 103.252 28.494C102.64 28.494 102.118 28.716 101.686 29.16C101.266 29.592 101.056 30.192 101.056 30.96C101.056 31.728 101.266 32.34 101.686 32.796C102.118 33.24 102.64 33.462 103.252 33.462C103.864 33.462 104.38 33.24 104.8 32.796C105.232 32.352 105.448 31.746 105.448 30.978ZM115.038 36.144C114.162 36.144 113.382 35.994 112.698 35.694C112.014 35.394 111.474 34.986 111.078 34.47C110.682 33.942 110.46 33.354 110.412 32.706H113.454C113.49 33.054 113.652 33.336 113.94 33.552C114.228 33.768 114.582 33.876 115.002 33.876C115.386 33.876 115.68 33.804 115.884 33.66C116.1 33.504 116.208 33.306 116.208 33.066C116.208 32.778 116.058 32.568 115.758 32.436C115.458 32.292 114.972 32.136 114.3 31.968C113.58 31.8 112.98 31.626 112.5 31.446C112.02 31.254 111.606 30.96 111.258 30.564C110.91 30.156 110.736 29.61 110.736 28.926C110.736 28.35 110.892 27.828 111.204 27.36C111.528 26.88 111.996 26.502 112.608 26.226C113.232 25.95 113.97 25.812 114.822 25.812C116.082 25.812 117.072 26.124 117.792 26.748C118.524 27.372 118.944 28.2 119.052 29.232H116.208C116.16 28.884 116.004 28.608 115.74 28.404C115.488 28.2 115.152 28.098 114.732 28.098C114.372 28.098 114.096 28.17 113.904 28.314C113.712 28.446 113.616 28.632 113.616 28.872C113.616 29.16 113.766 29.376 114.066 29.52C114.378 29.664 114.858 29.808 115.506 29.952C116.25 30.144 116.856 30.336 117.324 30.528C117.792 30.708 118.2 31.008 118.548 31.428C118.908 31.836 119.094 32.388 119.106 33.084C119.106 33.672 118.938 34.2 118.602 34.668C118.278 35.124 117.804 35.484 117.18 35.748C116.568 36.012 115.854 36.144 115.038 36.144ZM125.275 36.144C124.399 36.144 123.619 35.994 122.935 35.694C122.251 35.394 121.711 34.986 121.315 34.47C120.919 33.942 120.697 33.354 120.649 32.706H123.691C123.727 33.054 123.889 33.336 124.177 33.552C124.465 33.768 124.819 33.876 125.239 33.876C125.623 33.876 125.917 33.804 126.121 33.66C126.337 33.504 126.445 33.306 126.445 33.066C126.445 32.778 126.295 32.568 125.995 32.436C125.695 32.292 125.209 32.136 124.537 31.968C123.817 31.8 123.217 31.626 122.737 31.446C122.257 31.254 121.843 30.96 121.495 30.564C121.147 30.156 120.973 29.61 120.973 28.926C120.973 28.35 121.129 27.828 121.441 27.36C121.765 26.88 122.233 26.502 122.845 26.226C123.469 25.95 124.207 25.812 125.059 25.812C126.319 25.812 127.309 26.124 128.029 26.748C128.761 27.372 129.181 28.2 129.289 29.232H126.445C126.397 28.884 126.241 28.608 125.977 28.404C125.725 28.2 125.389 28.098 124.969 28.098C124.609 28.098 124.333 28.17 124.141 28.314C123.949 28.446 123.853 28.632 123.853 28.872C123.853 29.16 124.003 29.376 124.303 29.52C124.615 29.664 125.095 29.808 125.743 29.952C126.487 30.144 127.093 30.336 127.561 30.528C128.029 30.708 128.437 31.008 128.785 31.428C129.145 31.836 129.331 32.388 129.343 33.084C129.343 33.672 129.175 34.2 128.839 34.668C128.515 35.124 128.041 35.484 127.417 35.748C126.805 36.012 126.091 36.144 125.275 36.144ZM134.505 27.63C134.865 27.078 135.315 26.646 135.855 26.334C136.395 26.01 136.995 25.848 137.655 25.848V29.106H136.809C136.041 29.106 135.465 29.274 135.081 29.61C134.697 29.934 134.505 30.51 134.505 31.338V36H131.427V25.956H134.505V27.63ZM143.898 36.144C142.914 36.144 142.026 35.934 141.234 35.514C140.454 35.094 139.836 34.494 139.38 33.714C138.936 32.934 138.714 32.022 138.714 30.978C138.714 29.946 138.942 29.04 139.398 28.26C139.854 27.468 140.478 26.862 141.27 26.442C142.062 26.022 142.95 25.812 143.934 25.812C144.918 25.812 145.806 26.022 146.598 26.442C147.39 26.862 148.014 27.468 148.47 28.26C148.926 29.04 149.154 29.946 149.154 30.978C149.154 32.01 148.92 32.922 148.452 33.714C147.996 34.494 147.366 35.094 146.562 35.514C145.77 35.934 144.882 36.144 143.898 36.144ZM143.898 33.48C144.486 33.48 144.984 33.264 145.392 32.832C145.812 32.4 146.022 31.782 146.022 30.978C146.022 30.174 145.818 29.556 145.41 29.124C145.014 28.692 144.522 28.476 143.934 28.476C143.334 28.476 142.836 28.692 142.44 29.124C142.044 29.544 141.846 30.162 141.846 30.978C141.846 31.782 142.038 32.4 142.422 32.832C142.818 33.264 143.31 33.48 143.898 33.48ZM155.559 36.144C154.575 36.144 153.687 35.934 152.895 35.514C152.115 35.094 151.497 34.494 151.041 33.714C150.597 32.934 150.375 32.022 150.375 30.978C150.375 29.946 150.603 29.04 151.059 28.26C151.515 27.468 152.139 26.862 152.931 26.442C153.723 26.022 154.611 25.812 155.595 25.812C156.579 25.812 157.467 26.022 158.259 26.442C159.051 26.862 159.675 27.468 160.131 28.26C160.587 29.04 160.815 29.946 160.815 30.978C160.815 32.01 160.581 32.922 160.113 33.714C159.657 34.494 159.027 35.094 158.223 35.514C157.431 35.934 156.543 36.144 155.559 36.144ZM155.559 33.48C156.147 33.48 156.645 33.264 157.053 32.832C157.473 32.4 157.683 31.782 157.683 30.978C157.683 30.174 157.479 29.556 157.071 29.124C156.675 28.692 156.183 28.476 155.595 28.476C154.995 28.476 154.497 28.692 154.101 29.124C153.705 29.544 153.507 30.162 153.507 30.978C153.507 31.782 153.699 32.4 154.083 32.832C154.479 33.264 154.971 33.48 155.559 33.48ZM175.464 25.848C176.712 25.848 177.702 26.226 178.434 26.982C179.178 27.738 179.55 28.788 179.55 30.132V36H176.49V30.546C176.49 29.898 176.316 29.4 175.968 29.052C175.632 28.692 175.164 28.512 174.564 28.512C173.964 28.512 173.49 28.692 173.142 29.052C172.806 29.4 172.638 29.898 172.638 30.546V36H169.578V30.546C169.578 29.898 169.404 29.4 169.056 29.052C168.72 28.692 168.252 28.512 167.652 28.512C167.052 28.512 166.578 28.692 166.23 29.052C165.894 29.4 165.726 29.898 165.726 30.546V36H162.648V25.956H165.726V27.216C166.038 26.796 166.446 26.466 166.95 26.226C167.454 25.974 168.024 25.848 168.66 25.848C169.416 25.848 170.088 26.01 170.676 26.334C171.276 26.658 171.744 27.12 172.08 27.72C172.428 27.168 172.902 26.718 173.502 26.37C174.102 26.022 174.756 25.848 175.464 25.848ZM93.426 44.364V57H90.348V49.422L87.522 57H85.038L82.194 49.404V57H79.116V44.364H82.752L86.298 53.112L89.808 44.364H93.426ZM95.2274 51.96C95.2274 50.928 95.4194 50.022 95.8034 49.242C96.1994 48.462 96.7334 47.862 97.4054 47.442C98.0774 47.022 98.8274 46.812 99.6554 46.812C100.363 46.812 100.981 46.956 101.509 47.244C102.049 47.532 102.463 47.91 102.751 48.378V46.956H105.829V57H102.751V55.578C102.451 56.046 102.031 56.424 101.491 56.712C100.963 57 100.345 57.144 99.6374 57.144C98.8214 57.144 98.0774 56.934 97.4054 56.514C96.7334 56.082 96.1994 55.476 95.8034 54.696C95.4194 53.904 95.2274 52.992 95.2274 51.96ZM102.751 51.978C102.751 51.21 102.535 50.604 102.103 50.16C101.683 49.716 101.167 49.494 100.555 49.494C99.9434 49.494 99.4214 49.716 98.9894 50.16C98.5694 50.592 98.3594 51.192 98.3594 51.96C98.3594 52.728 98.5694 53.34 98.9894 53.796C99.4214 54.24 99.9434 54.462 100.555 54.462C101.167 54.462 101.683 54.24 102.103 53.796C102.535 53.352 102.751 52.746 102.751 51.978ZM114.376 46.848C115.552 46.848 116.488 47.232 117.184 48C117.892 48.756 118.246 49.8 118.246 51.132V57H115.186V51.546C115.186 50.874 115.012 50.352 114.664 49.98C114.316 49.608 113.848 49.422 113.26 49.422C112.672 49.422 112.204 49.608 111.856 49.98C111.508 50.352 111.334 50.874 111.334 51.546V57H108.256V46.956H111.334V48.288C111.646 47.844 112.066 47.496 112.594 47.244C113.122 46.98 113.716 46.848 114.376 46.848ZM119.973 51.96C119.973 50.928 120.165 50.022 120.549 49.242C120.945 48.462 121.479 47.862 122.151 47.442C122.823 47.022 123.573 46.812 124.401 46.812C125.109 46.812 125.727 46.956 126.255 47.244C126.795 47.532 127.209 47.91 127.497 48.378V46.956H130.575V57H127.497V55.578C127.197 56.046 126.777 56.424 126.237 56.712C125.709 57 125.091 57.144 124.383 57.144C123.567 57.144 122.823 56.934 122.151 56.514C121.479 56.082 120.945 55.476 120.549 54.696C120.165 53.904 119.973 52.992 119.973 51.96ZM127.497 51.978C127.497 51.21 127.281 50.604 126.849 50.16C126.429 49.716 125.913 49.494 125.301 49.494C124.689 49.494 124.167 49.716 123.735 50.16C123.315 50.592 123.105 51.192 123.105 51.96C123.105 52.728 123.315 53.34 123.735 53.796C124.167 54.24 124.689 54.462 125.301 54.462C125.913 54.462 126.429 54.24 126.849 53.796C127.281 53.352 127.497 52.746 127.497 51.978ZM136.818 46.812C137.526 46.812 138.144 46.956 138.672 47.244C139.212 47.532 139.626 47.91 139.914 48.378V46.956H142.992V56.982C142.992 57.906 142.806 58.74 142.434 59.484C142.074 60.24 141.516 60.84 140.76 61.284C140.016 61.728 139.086 61.95 137.97 61.95C136.482 61.95 135.276 61.596 134.352 60.888C133.428 60.192 132.9 59.244 132.768 58.044H135.81C135.906 58.428 136.134 58.728 136.494 58.944C136.854 59.172 137.298 59.286 137.826 59.286C138.462 59.286 138.966 59.1 139.338 58.728C139.722 58.368 139.914 57.786 139.914 56.982V55.56C139.614 56.028 139.2 56.412 138.672 56.712C138.144 57 137.526 57.144 136.818 57.144C135.99 57.144 135.24 56.934 134.568 56.514C133.896 56.082 133.362 55.476 132.966 54.696C132.582 53.904 132.39 52.992 132.39 51.96C132.39 50.928 132.582 50.022 132.966 49.242C133.362 48.462 133.896 47.862 134.568 47.442C135.24 47.022 135.99 46.812 136.818 46.812ZM139.914 51.978C139.914 51.21 139.698 50.604 139.266 50.16C138.846 49.716 138.33 49.494 137.718 49.494C137.106 49.494 136.584 49.716 136.152 50.16C135.732 50.592 135.522 51.192 135.522 51.96C135.522 52.728 135.732 53.34 136.152 53.796C136.584 54.24 137.106 54.462 137.718 54.462C138.33 54.462 138.846 54.24 139.266 53.796C139.698 53.352 139.914 52.746 139.914 51.978ZM154.887 51.816C154.887 52.104 154.869 52.404 154.833 52.716H147.867C147.915 53.34 148.113 53.82 148.461 54.156C148.821 54.48 149.259 54.642 149.775 54.642C150.543 54.642 151.077 54.318 151.377 53.67H154.653C154.485 54.33 154.179 54.924 153.735 55.452C153.303 55.98 152.757 56.394 152.097 56.694C151.437 56.994 150.699 57.144 149.883 57.144C148.899 57.144 148.023 56.934 147.255 56.514C146.487 56.094 145.887 55.494 145.455 54.714C145.023 53.934 144.807 53.022 144.807 51.978C144.807 50.934 145.017 50.022 145.437 49.242C145.869 48.462 146.469 47.862 147.237 47.442C148.005 47.022 148.887 46.812 149.883 46.812C150.855 46.812 151.719 47.016 152.475 47.424C153.231 47.832 153.819 48.414 154.239 49.17C154.671 49.926 154.887 50.808 154.887 51.816ZM151.737 51.006C151.737 50.478 151.557 50.058 151.197 49.746C150.837 49.434 150.387 49.278 149.847 49.278C149.331 49.278 148.893 49.428 148.533 49.728C148.185 50.028 147.969 50.454 147.885 51.006H151.737ZM159.789 48.63C160.149 48.078 160.599 47.646 161.139 47.334C161.679 47.01 162.279 46.848 162.939 46.848V50.106H162.093C161.325 50.106 160.749 50.274 160.365 50.61C159.981 50.934 159.789 51.51 159.789 52.338V57H156.711V46.956H159.789V48.63Z" fill="black"/>
<defs>
<linearGradient id="paint0_linear_1_51" x1="19.906" y1="53.2676" x2="53.7193" y2="16.0765" gradientUnits="userSpaceOnUse">
<stop offset="0.276042" stop-color="#FF0000"/>
<stop offset="1" stop-color="#7329C6"/>
</linearGradient>
</defs>
</svg>
